<?xml version="1.0" standalone="no"?>
<!DOCTYPE svg PUBLIC "-//W3C//DTD SVG 20010904//EN"
 "http://www.w3.org/TR/2001/REC-SVG-20010904/DTD/svg10.dtd">
<svg version="1.0" xmlns="http://www.w3.org/2000/svg"
 width="872.000000pt" height="872.000000pt" viewBox="0 0 872.000000 872.000000"
 preserveAspectRatio="xMidYMid meet">
<metadata>
Created by potrace 1.11, written by Peter Selinger 2001-2013
</metadata>
<g transform="translate(0.000000,872.000000) scale(0.100000,-0.100000)"
fill="#000000" stroke="none">
<path d="M4039 7996 c-236 -236 -351 -359 -367 -390 -39 -78 -28 -202 23 -262
14 -16 25 -32 25 -36 0 -7 32 -26 90 -54 20 -9 60 -16 92 -16 97 0 147 32 324
208 85 85 158 154 162 154 4 0 77 -69 162 -154 181 -183 224 -211 320 -210 79
1 129 22 186 81 47 48 73 121 68 193 -6 100 -22 120 -387 486 -188 189 -345
344 -348 344 -3 0 -161 -155 -350 -344z"/>
<path d="M1690 5609 c-30 -10 -69 -34 -88 -51 -116 -112 -1212 -1213 -1212
-1217 0 -3 899 -905 1998 -2003 l1998 -1998 2002 2002 2002 2002 -628 627
c-604 604 -629 627 -682 643 -66 20 -93 20 -156 1 -109 -32 -178 -129 -178
-250 0 -53 6 -81 23 -115 15 -28 110 -133 260 -284 130 -131 244 -246 254
-255 13 -12 335 -334 366 -366 2 -2 -731 -738 -1629 -1636 l-1632 -1632 -1633
1633 -1632 1632 432 433 c475 475 479 480 479 591 0 179 -175 303 -344 243z"/>
</g>
</svg>
